<svg width="516" height="1496" viewBox="0 0 516 1496" fill="none" xmlns="http://www.w3.org/2000/svg">
<path fill-rule="evenodd" clip-rule="evenodd" d="M192.266 12.552C207.498 4.21221 225.765 0.175333 243.985 8.84107C257.836 7.69289 278.316 11.2426 295.698 25.5491C313.376 40.1001 327.596 65.5663 328.613 107.807L328.658 108.668C328.801 110.828 329.219 114.006 330.065 117.324C331.039 121.146 332.534 124.955 334.676 127.632C337.305 130.919 339.312 135.656 340.753 140.074C342.209 144.534 343.156 148.886 343.588 151.563L343.601 151.641L343.608 151.72C343.864 154.88 344.042 159.973 343.748 165.059C343.461 170.044 342.704 175.4 340.878 178.823C339.613 181.195 339.583 184.743 340.316 188.568C340.996 192.119 342.26 195.531 343.26 197.683C347.087 201.247 352.209 207.596 355.697 215.58C359.282 223.788 361.197 233.856 358.039 244.419L358.04 244.42L354.984 255.336C359.953 257.836 366.852 261.376 373.013 264.696C376.41 266.526 379.599 268.296 382.123 269.791C383.384 270.538 384.496 271.226 385.392 271.824C386.252 272.399 387.027 272.966 387.529 273.467C387.901 273.839 388.525 274.42 389.4 275.233C392.695 278.294 399.01 284.158 405.336 291.663C411.647 299.15 418.071 308.385 421.502 318.223C427.521 335.476 433.696 357.802 436.041 366.846L448.467 408.781L441.903 412.821L463.557 501.406L463.561 501.424L463.565 501.443C465.124 508.375 467.223 528.353 463.594 554.159C461.314 570.371 454.63 592.157 447.939 611.231C441.235 630.339 434.468 646.885 431.949 652.679C427.977 661.814 405.631 712.384 394.702 737.103C396.241 744.551 399.214 760.446 399.612 768.786C399.817 773.103 399.017 795.449 397.95 821.426C396.879 847.485 395.528 877.389 394.612 896.975L394.61 897.029L394.604 897.081C392.44 918.558 389.643 951.695 388.286 981.298C387.608 996.103 387.292 1009.99 387.591 1021.08C387.741 1026.63 388.044 1031.45 388.526 1035.31C389.015 1039.24 389.667 1041.97 390.412 1043.51L390.557 1043.8L390.599 1044.13L393.074 1063.93C397.512 1076.69 403.893 1097.94 408.732 1120.56C413.573 1143.2 416.916 1167.42 415.118 1185.93L420.612 1303.29L420.614 1303.33V1333.86C429.99 1340.99 443.577 1360.77 431.27 1388.95C433.314 1394.43 437.556 1402.69 443.95 1410.35C450.637 1418.36 459.554 1425.58 470.615 1428.44C493.608 1434.39 505.863 1447.9 509.579 1454.85L509.912 1455.51L509.952 1455.59L509.983 1455.67C512.228 1461.56 512.027 1470.4 504.527 1477.88C497.123 1485.27 482.881 1491.07 457.678 1491.88L457.574 1491.88L457.468 1491.88C449.424 1491.29 436.86 1490.01 425.284 1488.07C419.498 1487.1 413.918 1485.95 409.258 1484.64C404.964 1483.43 401.197 1482 398.813 1480.28C390.591 1479.04 378.786 1475.9 369.474 1470.32C360.046 1464.68 352.562 1456.11 355.119 1444.14C355.451 1432.97 356.387 1408.63 357.562 1398.22L348.307 1378.74L348.271 1378.66L348.242 1378.58C346.621 1374.26 344.998 1363.44 350.469 1352.67L316.694 1236.44L316.681 1236.4L316.671 1236.36C313.83 1224.74 309.744 1206.34 306.718 1188.89C305.205 1180.16 303.953 1171.64 303.254 1164.3C302.562 1157.02 302.393 1150.72 303.146 1146.53C303.77 1143.05 303.134 1136.67 301.489 1128.29C299.864 1120.02 297.326 1110.11 294.367 1099.77C288.449 1079.09 280.889 1056.78 275.734 1042.56L275.692 1042.45L229.399 839.618C223.068 876.824 214.432 928.223 207.226 972.539C203.291 996.739 199.783 1018.82 197.309 1035.32C196.072 1043.58 195.096 1050.42 194.453 1055.44C194.132 1057.95 193.896 1059.98 193.753 1061.5C193.603 1063.11 193.578 1063.93 193.603 1064.17C194.421 1071.95 192.338 1081.5 191.124 1085.63C191.789 1102.48 192.582 1127.88 192.814 1149.79C192.931 1160.8 192.906 1170.96 192.651 1178.69C192.523 1182.55 192.336 1185.85 192.076 1188.36C191.947 1189.61 191.795 1190.7 191.616 1191.59C191.45 1192.4 191.218 1193.28 190.818 1193.93C190.835 1193.9 190.783 1193.99 190.68 1194.29C190.586 1194.56 190.476 1194.93 190.352 1195.41C190.103 1196.36 189.819 1197.65 189.502 1199.26C188.87 1202.47 188.131 1206.85 187.311 1212.15C185.672 1222.73 183.727 1236.86 181.709 1252.34C177.7 1283.1 173.406 1319.14 170.655 1343.14C172.435 1347.99 174.314 1355.96 174.476 1364.93C174.639 1374.02 173.043 1384.28 167.649 1393.37L170.6 1439.61C171.477 1443.71 171.515 1450.08 168.882 1456.32C166.181 1462.73 160.707 1468.89 150.758 1472.27C141.313 1475.49 134.212 1477.51 129.158 1478.73C124.558 1479.83 121.54 1480.3 119.98 1480.37C114.567 1482.3 105.843 1485.11 96.806 1487.41C87.6517 1489.73 77.9564 1491.59 71.0531 1491.38C70.6236 1491.37 70.1797 1491.35 69.722 1491.34C61.2172 1491.09 47.9179 1490.71 36.1165 1487.64C24.4207 1484.61 13.3635 1478.7 10.6634 1466.82C8.4222 1456.96 13.8279 1448.6 20.7845 1442.41C27.7774 1436.19 36.7724 1431.73 42.9349 1429.5L42.9447 1429.5L42.9544 1429.49C49.6652 1427.15 59.7383 1422.05 67.9964 1414.45C76.105 1406.98 82.268 1397.3 82.1273 1385.58C77.3315 1379.01 72.8311 1361.62 85.6068 1336.91C85.2646 1309.3 84.0996 1251.5 82.1302 1236.14C80.8644 1226.26 79.4886 1198.66 79.1136 1172.03C78.9259 1158.7 78.9883 1145.57 79.4437 1134.97C79.6713 1129.67 79.9979 1124.98 80.4456 1121.2C80.8612 1117.69 81.4022 1114.77 82.1556 1112.88C83.4029 1101.55 85.1835 1084.1 86.5081 1068.22C87.176 1060.2 87.7271 1052.6 88.0365 1046.39C88.3489 1040.12 88.4046 1035.42 88.1283 1033.12C86.9329 1023.16 74.9739 944.045 69.1361 905.682L69.1302 905.642L69.1253 905.601C66.5385 882.153 63.3092 845.778 62.0277 812.847C61.3871 796.385 61.2316 780.744 61.8929 767.994C62.2235 761.621 62.7603 755.935 63.5511 751.211C64.2365 747.118 65.1322 743.618 66.3236 741C59.3598 729.98 49.0766 711.828 40.054 691.88C30.827 671.48 22.8263 649.01 21.1449 630.315C17.623 620.466 12.6241 604.233 8.93392 587.141C5.22602 569.967 2.78222 551.677 4.63216 538.111C8.20716 511.895 24.771 445.188 32.8773 414.037L26.3021 407.968L57.721 315.737C61.4068 303.892 78.7738 276.921 119.23 258.751L112.615 234.651V234.381C112.615 227.969 116.285 211.893 130.317 195.48C128.421 190.436 126.121 182.65 124.85 174.255C123.486 165.246 123.264 155.262 126.238 147.19C131.637 132.535 137.477 121.294 140.077 116.892C139.17 103.077 141.368 70.2038 157.397 43.3557L157.447 43.2727L157.503 43.1956C164.382 33.8539 176.915 20.9568 192.266 12.552ZM386.645 430.045C386.917 430.942 387.21 432.028 387.52 433.245C388.145 435.704 388.886 438.905 389.71 442.656C391.359 450.16 393.353 459.927 395.439 470.493C399.612 491.631 404.165 516.017 407.082 532.023L407.145 532.365L385.969 659.422L385.423 659.894C369.183 673.937 357.224 682.674 348.845 687.892C344.657 690.499 341.336 692.246 338.8 693.336C337.737 693.793 336.763 694.157 335.888 694.417C345.402 717.341 358.62 727.421 368.372 731.807C372.178 733.518 375.48 734.373 377.862 734.777C377.933 734.048 378.092 733.252 378.294 732.437C378.965 729.733 380.349 725.916 382.212 721.315C385.953 712.077 391.795 699.282 398.285 685.062C410.033 659.325 423.932 628.87 431.719 605.743L431.764 605.612L431.826 605.487C436.421 596.296 440.554 578.333 443.515 559.816C446.442 541.51 448.168 523.03 448.115 512.642L422.748 416.055L386.645 430.045ZM25.0716 512.798C23.5808 521.451 21.0355 542.6 22.6048 558.687C24.088 573.889 30.3539 600.286 33.8802 613.834L34.5472 616.365L34.5785 616.486L34.596 616.608C40.7473 661.204 64.2221 705.477 76.1869 723.638C92.2311 712.967 99.9972 696.039 102.285 687.489C84.0288 678.734 70.1223 668.212 65.2796 663.87L64.6663 663.321L57.1185 535.499L57.099 535.181L57.181 534.871L83.7425 434.032L49.4603 419.147L25.0716 512.798ZM105.624 417.166C103.96 419.026 101.455 423.302 98.8314 430.23C96.1907 437.202 93.3764 447.005 91.1605 460.064L71.0999 535.292L77.6595 654.373L85.5902 662.304L120.115 543.785V504.873L120.099 504.748L108.546 413.902L105.624 417.166ZM362.646 414.646L345.646 509.146L345.615 509.322V547.5L345.85 547.942C346.149 548.503 346.674 549.906 347.4 552.186C348.105 554.402 348.952 557.293 349.906 560.703C351.812 567.522 354.13 576.364 356.564 585.931C361.431 605.062 366.753 627.051 370.168 641.461L374.085 641.344L387.046 567.068C391.326 557.143 392.772 544.684 392.889 533.258C393.007 521.708 391.77 511.003 390.58 504.633L390.567 504.559L390.547 504.485L366.547 414.485L362.646 414.646ZM272.523 223.113C259.686 232.296 245.131 234.554 232.029 233.575C219.445 232.636 208.082 228.708 200.596 224.935C194.834 255.008 179.824 266.092 169.65 268.399C198.183 299.652 226.461 305.596 250.297 300.513C273.648 295.533 293.089 279.894 304.571 266.093C293.189 262.879 285.474 254.951 280.458 246.27C275.889 238.362 273.486 229.721 272.523 223.113ZM236.771 48.0618C229.342 55.4375 224.145 59.6345 220.025 62.1301C215.407 64.9271 212.194 65.5532 209.011 66.1731C206.988 66.5671 205.035 66.9508 202.604 67.885C200.169 68.8207 197.193 70.3348 193.243 73.0325C191.191 74.4339 188.991 77.6572 186.963 82.6917C184.97 87.64 183.261 94.0358 181.999 101.384C179.477 116.078 178.781 134.363 181.036 152.066C183.295 169.797 188.49 186.743 197.584 198.927C206.604 211.011 219.481 218.466 237.494 217.385C251.947 216.518 262.528 210.625 270.229 201.639C277.979 192.596 282.892 180.318 285.718 166.627C291.266 139.749 288.643 108.025 284.4 86.5149C255.561 79.1562 241.384 59.642 236.771 48.0618Z" stroke="white" stroke-width="8"/>
</svg>
