<svg width="513" height="1494" viewBox="0 0 513 1494" fill="none" xmlns="http://www.w3.org/2000/svg">
<path fill-rule="evenodd" clip-rule="evenodd" d="M191.266 11.552C206.498 3.21221 224.765 -0.824667 242.985 7.84107C256.836 6.69289 277.316 10.2426 294.698 24.5491C312.376 39.1001 326.596 64.5663 327.613 106.807L327.658 107.668C327.801 109.828 328.219 113.006 329.065 116.324C330.039 120.146 331.534 123.955 333.676 126.632C336.305 129.919 338.312 134.656 339.753 139.074C341.209 143.534 342.156 147.886 342.588 150.563L342.601 150.641L342.608 150.72C342.864 153.88 343.042 158.973 342.748 164.059C342.461 169.044 341.704 174.4 339.878 177.823C338.613 180.195 338.583 183.743 339.316 187.568C339.996 191.119 341.26 194.531 342.26 196.683C346.087 200.247 351.209 206.596 354.697 214.58C358.282 222.788 360.197 232.856 357.039 243.419L357.04 243.42L353.984 254.336C358.953 256.836 365.852 260.376 372.013 263.696C375.41 265.526 378.599 267.296 381.123 268.791C382.384 269.538 383.496 270.226 384.392 270.824C385.252 271.399 386.027 271.966 386.529 272.467C386.901 272.839 387.525 273.42 388.4 274.233C391.695 277.294 398.01 283.158 404.336 290.663C410.647 298.15 417.071 307.385 420.502 317.223C426.521 334.476 432.696 356.802 435.041 365.846L447.467 407.781L440.903 411.821L462.557 500.406L462.561 500.424L462.565 500.443C464.124 507.375 466.223 527.353 462.594 553.159C460.314 569.371 453.63 591.157 446.939 610.231C440.235 629.339 433.468 645.885 430.949 651.679C426.977 660.814 404.631 711.384 393.702 736.103C395.241 743.551 398.214 759.446 398.612 767.786C398.817 772.103 398.017 794.449 396.95 820.426C395.879 846.485 394.528 876.389 393.612 895.975L393.61 896.029L393.604 896.081C391.44 917.558 388.643 950.695 387.286 980.298C386.608 995.103 386.292 1008.99 386.591 1020.08C386.741 1025.63 387.044 1030.45 387.526 1034.31C388.015 1038.24 388.667 1040.97 389.412 1042.51L389.557 1042.8L389.599 1043.13L392.074 1062.93C396.512 1075.69 402.893 1096.94 407.732 1119.56C412.573 1142.2 415.916 1166.42 414.118 1184.93L419.612 1302.29L419.614 1302.33V1332.86C428.99 1339.99 442.577 1359.77 430.27 1387.95C432.314 1393.43 436.556 1401.69 442.95 1409.35C449.637 1417.36 458.554 1424.58 469.615 1427.44C492.608 1433.39 504.863 1446.9 508.579 1453.85L508.912 1454.51L508.952 1454.59L508.983 1454.67C511.228 1460.56 511.027 1469.4 503.527 1476.88C496.123 1484.27 481.881 1490.07 456.678 1490.88L456.574 1490.88L456.468 1490.88C448.424 1490.29 435.86 1489.01 424.284 1487.07C418.498 1486.1 412.918 1484.95 408.258 1483.64C403.964 1482.43 400.197 1481 397.813 1479.28C389.591 1478.04 377.786 1474.9 368.474 1469.32C359.046 1463.68 351.562 1455.11 354.119 1443.14C354.451 1431.97 355.387 1407.63 356.562 1397.22L347.307 1377.74L347.271 1377.66L347.242 1377.58C345.621 1373.26 343.998 1362.44 349.469 1351.67L315.694 1235.44L315.681 1235.4L315.671 1235.36C312.83 1223.74 308.744 1205.34 305.718 1187.89C304.205 1179.16 302.953 1170.64 302.254 1163.3C301.562 1156.02 301.393 1149.72 302.146 1145.53C302.77 1142.05 302.134 1135.67 300.489 1127.29C298.864 1119.02 296.326 1109.11 293.367 1098.77C287.449 1078.09 279.889 1055.78 274.734 1041.56L274.692 1041.45L228.399 838.618C222.068 875.824 213.432 927.223 206.226 971.539C202.291 995.739 198.783 1017.82 196.309 1034.32C195.072 1042.58 194.096 1049.42 193.453 1054.44C193.132 1056.95 192.896 1058.98 192.753 1060.5C192.603 1062.11 192.578 1062.93 192.603 1063.17C193.421 1070.95 191.338 1080.5 190.124 1084.63C190.789 1101.48 191.582 1126.88 191.814 1148.79C191.931 1159.8 191.906 1169.96 191.651 1177.69C191.523 1181.55 191.336 1184.85 191.076 1187.36C190.947 1188.61 190.795 1189.7 190.616 1190.59C190.45 1191.4 190.218 1192.28 189.818 1192.93C189.835 1192.9 189.783 1192.99 189.68 1193.29C189.586 1193.56 189.476 1193.93 189.352 1194.41C189.103 1195.36 188.819 1196.65 188.502 1198.26C187.87 1201.47 187.131 1205.85 186.311 1211.15C184.672 1221.73 182.727 1235.86 180.709 1251.34C176.7 1282.1 172.406 1318.14 169.655 1342.14C171.435 1346.99 173.314 1354.96 173.476 1363.93C173.639 1373.02 172.043 1383.28 166.649 1392.37L169.6 1438.61C170.477 1442.71 170.515 1449.08 167.882 1455.32C165.181 1461.73 159.707 1467.89 149.758 1471.27C140.313 1474.49 133.212 1476.51 128.158 1477.73C123.558 1478.83 120.54 1479.3 118.98 1479.37C113.567 1481.3 104.843 1484.11 95.806 1486.41C86.6517 1488.73 76.9564 1490.59 70.0531 1490.38C69.6236 1490.37 69.1797 1490.35 68.722 1490.34C60.2172 1490.09 46.9179 1489.71 35.1165 1486.64C23.4207 1483.61 12.3635 1477.7 9.66341 1465.82C7.4222 1455.96 12.8279 1447.6 19.7845 1441.41C26.7774 1435.19 35.7724 1430.73 41.9349 1428.5L41.9447 1428.5L41.9544 1428.49C48.6652 1426.15 58.7383 1421.05 66.9964 1413.45C75.105 1405.98 81.268 1396.3 81.1273 1384.58C76.3315 1378.01 71.8311 1360.62 84.6068 1335.91C84.2646 1308.3 83.0996 1250.5 81.1302 1235.14C79.8644 1225.26 78.4886 1197.66 78.1136 1171.03C77.9259 1157.7 77.9883 1144.57 78.4437 1133.97C78.6713 1128.67 78.9979 1123.98 79.4456 1120.2C79.8612 1116.69 80.4022 1113.77 81.1556 1111.88C82.4029 1100.55 84.1835 1083.1 85.5081 1067.22C86.176 1059.2 86.7271 1051.6 87.0365 1045.39C87.3489 1039.12 87.4046 1034.42 87.1283 1032.12C85.9329 1022.16 73.9739 943.045 68.1361 904.682L68.1302 904.642L68.1253 904.601C65.5385 881.153 62.3092 844.778 61.0277 811.847C60.3871 795.385 60.2316 779.744 60.8929 766.994C61.2235 760.621 61.7603 754.935 62.5511 750.211C63.2365 746.118 64.1322 742.618 65.3236 740C58.3598 728.98 48.0766 710.828 39.054 690.88C29.827 670.48 21.8263 648.01 20.1449 629.315C16.623 619.466 11.6241 603.233 7.93392 586.141C4.22602 568.967 1.78222 550.677 3.63216 537.111C7.20716 510.895 23.771 444.188 31.8773 413.037L25.3021 406.968L56.721 314.737C60.4068 302.892 77.7738 275.921 118.23 257.751L111.615 233.651V233.381C111.615 226.969 115.285 210.893 129.317 194.48C127.421 189.436 125.121 181.65 123.85 173.255C122.486 164.246 122.264 154.262 125.238 146.19C130.637 131.535 136.477 120.294 139.077 115.892C138.17 102.077 140.368 69.2038 156.397 42.3557L156.447 42.2727L156.503 42.1956C163.382 32.8539 175.915 19.9568 191.266 11.552ZM385.645 429.045C385.917 429.942 386.21 431.028 386.52 432.245C387.145 434.704 387.886 437.905 388.71 441.656C390.359 449.16 392.353 458.927 394.439 469.493C398.612 490.631 403.165 515.017 406.082 531.023L406.145 531.365L384.969 658.422L384.423 658.894C368.183 672.937 356.224 681.674 347.845 686.892C343.657 689.499 340.336 691.246 337.8 692.336C336.737 692.793 335.763 693.157 334.888 693.417C344.402 716.341 357.62 726.421 367.372 730.807C371.178 732.518 374.48 733.373 376.862 733.777C376.933 733.048 377.092 732.252 377.294 731.437C377.965 728.733 379.349 724.916 381.212 720.315C384.953 711.077 390.795 698.282 397.285 684.062C409.033 658.325 422.932 627.87 430.719 604.743L430.764 604.612L430.826 604.487C435.421 595.296 439.554 577.333 442.515 558.816C445.442 540.51 447.168 522.03 447.115 511.642L421.748 415.055L385.645 429.045ZM24.0716 511.798C22.5808 520.451 20.0355 541.6 21.6048 557.687C23.088 572.889 29.3539 599.286 32.8802 612.834L33.5472 615.365L33.5785 615.486L33.596 615.608C39.7473 660.204 63.2221 704.477 75.1869 722.638C91.2311 711.967 98.9972 695.039 101.285 686.489C83.0288 677.734 69.1223 667.212 64.2796 662.87L63.6663 662.321L56.1185 534.499L56.099 534.181L56.181 533.871L82.7425 433.032L48.4603 418.147L24.0716 511.798ZM104.624 416.166C102.96 418.026 100.455 422.302 97.8314 429.23C95.1907 436.202 92.3764 446.005 90.1605 459.064L70.0999 534.292L76.6595 653.373L84.5902 661.304L119.115 542.785V503.873L119.099 503.748L107.546 412.902L104.624 416.166ZM361.646 413.646L344.646 508.146L344.615 508.322V546.5L344.85 546.942C345.149 547.503 345.674 548.906 346.4 551.186C347.105 553.402 347.952 556.293 348.906 559.703C350.812 566.522 353.13 575.364 355.564 584.931C360.431 604.062 365.753 626.051 369.168 640.461L373.085 640.344L386.046 566.068C390.326 556.143 391.772 543.684 391.889 532.258C392.007 520.708 390.77 510.003 389.58 503.633L389.567 503.559L389.547 503.485L365.547 413.485L361.646 413.646ZM271.523 222.113C258.686 231.296 244.131 233.554 231.029 232.575C218.445 231.636 207.082 227.708 199.596 223.935C193.834 254.008 178.824 265.092 168.65 267.399C197.183 298.652 225.461 304.596 249.297 299.513C272.648 294.533 292.089 278.894 303.571 265.093C292.189 261.879 284.474 253.951 279.458 245.27C274.889 237.362 272.486 228.721 271.523 222.113ZM235.771 47.0618C228.342 54.4375 223.145 58.6345 219.025 61.1301C214.407 63.9271 211.194 64.5532 208.011 65.1731C205.988 65.5671 204.035 65.9508 201.604 66.885C199.169 67.8207 196.193 69.3348 192.243 72.0325C190.191 73.4339 187.991 76.6572 185.963 81.6917C183.97 86.64 182.261 93.0358 180.999 100.384C178.477 115.078 177.781 133.363 180.036 151.066C182.295 168.797 187.49 185.743 196.584 197.927C205.604 210.011 218.481 217.466 236.494 216.385C250.947 215.518 261.528 209.625 269.229 200.639C276.979 191.596 281.892 179.318 284.718 165.627C290.266 138.749 287.643 107.025 283.4 85.5149C254.561 78.1562 240.384 58.642 235.771 47.0618Z" stroke="white" stroke-width="5"/>
</svg>
